<?xml version="1.0" encoding="utf-8"?>
<!-- Generator: Adobe Illustrator 16.0.0, SVG Export Plug-In . SVG Version: 6.00 Build 0)  -->
<!DOCTYPE svg PUBLIC "-//W3C//DTD SVG 1.1//EN" "http://www.w3.org/Graphics/SVG/1.1/DTD/svg11.dtd">
<svg version="1.1" id="Ebene_1" xmlns="http://www.w3.org/2000/svg" xmlns:xlink="http://www.w3.org/1999/xlink" x="0px" y="0px"
	 width="1043px" height="884px" viewBox="0 0 1043 884" enable-background="new 0 0 1043 884" xml:space="preserve">
<g id="edges">
	<path fill="none" stroke="#FF7C03" stroke-width="0.242" d="M364.122,419.72c79.132-44.505,264.589,7.434,309.094,86.567"/>
	<path fill="none" stroke="#FFD301" stroke-width="0.1403" d="M364.122,419.72c48.848-4.532,128.918,61.941,133.45,110.79"/>
	<path fill="none" stroke="#FFE200" stroke-width="0.1228" d="M364.122,419.72c-9.738,29.625-68.783,59.455-98.408,49.716"/>
	<path fill="none" stroke="#FFD401" stroke-width="0.1393" d="M547.913,538.9c-79.891-93.498-59.478-353.583,34.021-433.474"/>
	<path fill="none" stroke="#FFB502" stroke-width="0.175" d="M547.913,538.9c-58.507-119.511,32.999-386.539,152.51-445.046"/>
	<path fill="none" stroke="#FE8503" stroke-width="0.2311" d="M547.913,538.9c-55.254-105.457,20.05-346.524,125.507-401.778"/>
	<path fill="none" stroke="#FF3306" stroke-width="0.3274" d="M547.913,538.9c-41.347-107.041,57.196-329.623,164.237-370.97"/>
	<path fill="none" stroke="#FF016D" stroke-width="0.4992" d="M547.913,538.9c12.481-75.242,144.067-169.385,219.311-156.903"/>
	<path fill="none" stroke="#FF6604" stroke-width="0.2679" d="M547.913,538.9c106.503-50.674,342.268,33.07,392.941,139.573"/>
	<path fill="none" stroke="#FFCC01" stroke-width="0.1488" d="M547.913,538.9c65.236-49.235,236.945-25.234,286.181,40.002"/>
	<path fill="none" stroke="#E303EC" stroke-width="0.6668" d="M547.913,538.9c36.268-48.227,163.009-66.165,211.235-29.898"/>
	<path fill="none" stroke="#FFF300" stroke-width="0.1026" d="M547.913,538.9c-86.535-3.736-210.733-139.144-206.997-225.679"/>
	<path fill="none" stroke="#FF6404" stroke-width="0.2701" d="M547.913,538.9c-106.158,14.424-287.03-123.18-301.453-229.338"/>
	<path fill="none" stroke="#F503EA" stroke-width="0.6476" d="M547.913,538.9C432.688,477.494,351.962,212.547,413.369,97.322"/>
	<path fill="none" stroke="#FF02D5" stroke-width="0.6139" d="M547.913,538.9c-70.333,42.547-239.652,0.869-282.199-69.464"/>
	<path fill="none" stroke="#DB03EC" stroke-width="0.6761" d="M486.379,116.355c-12.77-6.146-22.705-34.521-16.559-47.29"/>
	<path fill="none" stroke="#FF3306" stroke-width="0.3274" d="M365.503,519.703C364.478,380.02,572.467,168.956,712.15,167.931"/>
	<path fill="none" stroke="#FFF500" stroke-width="0.1004" d="M365.503,519.703c59.64-159.488,388.333-309.259,547.821-249.619"/>
	<path fill="none" stroke="#FFB402" stroke-width="0.1767" d="M406.562,477.515c-25.617,13.876-84.857-3.737-98.732-29.354"/>
	<path fill="none" stroke="#FFC401" stroke-width="0.1573" d="M406.562,477.515c-69.038-94.342-31.083-339.411,63.258-408.449"/>
	<path fill="none" stroke="#FF5105" stroke-width="0.2924" d="M406.562,477.515c0.226,16.649-24.409,41.962-41.058,42.188"/>
	<path fill="none" stroke="#FFF500" stroke-width="0.1" d="M406.562,477.515C385.431,328.311,577.541,72.809,726.745,51.678"/>
	<path fill="none" stroke="#FFF300" stroke-width="0.1035" d="M406.562,477.515c-62.346-60.446-65.195-244.635-4.749-306.981"/>
	<path fill="none" stroke="#FFE300" stroke-width="0.1214" d="M406.562,477.515c60.647-63.656,247.104-68.17,310.761-7.522"/>
	<path fill="none" stroke="#FF7904" stroke-width="0.2455" d="M406.562,477.515c147.05-66.667,467.626,53.909,534.293,200.959"/>
	<path fill="none" stroke="#FF3306" stroke-width="0.3274" d="M406.562,477.515c119.778-65.717,398.021,15.376,463.737,135.154"/>
	<path fill="none" stroke="#FF9303" stroke-width="0.215" d="M406.562,477.515c133.544-66.196,433.155,34.825,499.351,168.37"/>
	<path fill="none" stroke="#FF8F03" stroke-width="0.2194" d="M406.562,477.515c91.545-64.733,325.961-24.515,390.694,67.029"/>
	<path fill="none" stroke="#FFF700" stroke-width="0.0988" d="M406.562,477.515C540.395,494.731,715.317,721.306,698.1,855.139"/>
	<path fill="none" stroke="#FFC001" stroke-width="0.1624" d="M406.562,477.515C291.45,448.221,162.723,231.612,192.017,116.5"/>
	<path fill="none" stroke="#FEF400" stroke-width="0.1019" d="M406.562,477.515c-88.931-36.676-167.314-225.086-130.638-314.017"/>
	<path fill="none" stroke="#FFDB00" stroke-width="0.1313" d="M406.562,477.515C278.445,451.887,124.71,221.271,150.338,93.154"/>
	<path fill="none" stroke="#FFC101" stroke-width="0.1617" d="M406.562,477.515c16.091-2.368,43.781,18.216,46.15,34.307"/>
	<path fill="none" stroke="#FFBF01" stroke-width="0.1637" d="M581.934,105.427c38.545-13.542,116.674,23.96,130.217,62.504"/>
	<path fill="none" stroke="#FFBF01" stroke-width="0.1637" d="M749.025,426.127c-59.015-44.264-81.14-199.182-36.875-258.196"/>
	<path fill="none" stroke="#FF9603" stroke-width="0.2113" d="M960.6,263.22c8.042-10.773,36.266-14.872,47.04-6.83"/>
	<path fill="none" stroke="#1503FD" stroke-width="0.896" d="M865.426,277.04c8.189-10.971,36.928-15.144,47.898-6.955"/>
	<path fill="none" stroke="#FF3F05" stroke-width="0.3132" d="M773.509,290.386C717.498,398.13,471.866,475.73,364.122,419.72"/>
	<path fill="none" stroke="#5F03F7" stroke-width="0.8131" d="M773.509,290.386C711.928,415.077,432.52,509.74,307.829,448.16"/>
	<path fill="none" stroke="#FF002B" stroke-width="0.4268" d="M773.509,290.386C668.507,306.86,486.293,174.067,469.82,69.065"/>
	<path fill="none" stroke="#FFA102" stroke-width="0.1988" d="M773.509,290.386c-92.232,22.62-264.511-81.799-287.13-174.031"/>
	<path fill="none" stroke="#1E03FC" stroke-width="0.8857" d="M773.509,290.386c-35.737,127.464-280.541,265.055-408.005,229.317"/>
	<path fill="none" stroke="#FF02C1" stroke-width="0.5915" d="M773.509,290.386c-35.964,110.815-256.132,223.092-366.947,187.128"/>
	<path fill="none" stroke="#FF5005" stroke-width="0.2931" d="M773.509,290.386c-23.509-10.767-42.622-62.179-31.854-85.688"/>
	<path fill="none" stroke="#FF0186" stroke-width="0.5265" d="M773.509,290.386c-75.308,1.323-190.251-109.653-191.575-184.959"/>
	<path fill="none" stroke="#CB03EE" stroke-width="0.6936" d="M773.509,290.386c-63.952-5.903-151.024-110.685-145.121-174.636"/>
	<path fill="none" stroke="#9903F2" stroke-width="0.7488" d="M773.509,290.386c-53.924-24.689-97.775-142.608-73.086-196.532"/>
	<path fill="none" stroke="#EA03EB" stroke-width="0.6593" d="M773.509,290.386c-57.095-38.389-85.152-181.614-46.764-238.708"/>
	<path fill="none" stroke="#D403ED" stroke-width="0.6837" d="M773.509,290.386c-50.671-10.635-110.725-102.594-100.089-153.264"/>
	<path fill="none" stroke="#5A03F7" stroke-width="0.8185" d="M773.509,290.386c-36.763-12.219-73.578-85.692-61.358-122.456"/>
	<path fill="none" stroke="#C203EF" stroke-width="0.7034" d="M773.509,290.386c-98.31,50.369-321.328-21.542-371.696-119.853"/>
	<path fill="none" stroke="#FF1D07" stroke-width="0.3533" d="M773.509,290.386c22.251,32.045,7.562,113.49-24.483,135.741"/>
	<path fill="none" stroke="#4103F9" stroke-width="0.8464" d="M773.509,290.386c23.902-32.023,107.792-44.205,139.815-20.302"/>
	<path fill="none" stroke="#9D03F2" stroke-width="0.7451" d="M773.509,290.386c31.985-42.852,144.239-59.151,187.091-27.167"/>
	<path fill="none" stroke="#FF0177" stroke-width="0.5108" d="M773.509,290.386c15.714-21.053,70.864-29.061,91.917-13.347"/>
	<path fill="none" stroke="#FF02A4" stroke-width="0.5596" d="M773.509,290.386c40.026-53.625,180.505-74.023,234.131-33.997"/>
	<path fill="none" stroke="#FF000B" stroke-width="0.3913" d="M773.509,290.386c17.065,19.579,13.294,74.546-6.285,91.611"/>
	<path fill="none" stroke="#FF02CA" stroke-width="0.6014" d="M773.509,290.386c24.684,47.159-9.028,154.922-56.187,179.606"/>
	<path fill="none" stroke="#A403F1" stroke-width="0.7366" d="M773.509,290.386c111.087,44.148,211.494,277,167.346,388.087"/>
	<path fill="none" stroke="#FF02D2" stroke-width="0.6101" d="M773.509,290.386c69.82,45.586,106.172,218.696,60.585,288.516"/>
	<path fill="none" stroke="#FF3306" stroke-width="0.3274" d="M773.509,290.386c83.814,45.098,141.889,238.468,96.79,322.283"/>
	<path fill="none" stroke="#C303EF" stroke-width="0.7028" d="M773.509,290.386c40.851,46.595,32.235,177.765-14.36,218.616"/>
	<path fill="none" stroke="#3503FA" stroke-width="0.8601" d="M773.509,290.386c97.58,44.619,177.022,257.918,132.403,355.499"/>
	<path fill="none" stroke="#5403F8" stroke-width="0.8252" d="M773.509,290.386c55.581,46.082,69.829,198.577,23.747,254.158"/>
	<path fill="none" stroke="#FF4405" stroke-width="0.307" d="M773.509,290.386c23.121,63.238-37.054,192.779-100.293,215.901"/>
	<path fill="none" stroke="#FF2206" stroke-width="0.3476" d="M773.509,290.386c86.247,121.238,33.763,432.467-87.476,518.715"/>
	<path fill="none" stroke="#FF0188" stroke-width="0.5287" d="M773.509,290.386c48.712,99.293-27.16,321.301-126.454,370.012"/>
	<path fill="none" stroke="#FF02A9" stroke-width="0.565" d="M773.509,290.386c97.868,128.032,52.624,466.883-75.409,564.752"/>
	<path fill="none" stroke="#FF017B" stroke-width="0.5146" d="M773.509,290.386c62.21,107.185-5.253,361.276-112.437,423.487"/>
	<path fill="none" stroke="#FF0016" stroke-width="0.4034" d="M773.509,290.386c33.606,90.462-51.677,276.567-142.139,310.173"/>
	<path fill="none" stroke="#FF02BB" stroke-width="0.5856" d="M773.509,290.386c74.452,114.341,14.616,397.532-99.726,471.983"/>
	<path fill="none" stroke="#FF2806" stroke-width="0.3399" d="M773.509,290.386c16.311,80.35-79.749,225.342-160.1,241.653"/>
	<path fill="none" stroke="#FFC101" stroke-width="0.1611" d="M773.509,290.386c-177.036,88.841-575.853-43.453-664.693-220.489"/>
	<path fill="none" stroke="#FF1407" stroke-width="0.3633" d="M773.509,290.386c-138.03,77.843-461.839-12.438-539.682-150.468"/>
	<path fill="none" stroke="#4A03F9" stroke-width="0.8363" d="M773.509,290.386C622.434,371.907,273.538,267.576,192.017,116.5"/>
	<path fill="none" stroke="#FF0013" stroke-width="0.4006" d="M773.509,290.386c-189.96,92.484-613.627-53.729-706.111-243.688"/>
	<path fill="none" stroke="#FFE300" stroke-width="0.1211" d="M773.509,290.386c-96.011,65.995-339.02,20.973-405.015-75.038"/>
	<path fill="none" stroke="#E003EC" stroke-width="0.6704" d="M773.509,290.386c-124.896,74.139-423.446-1.994-497.585-126.888"/>
	<path fill="none" stroke="#BF03EF" stroke-width="0.7074" d="M773.509,290.386c-164.081,85.188-537.983-33.151-623.171-197.232"/>
	<path fill="none" stroke="#FE004C" stroke-width="0.4629" d="M773.509,290.386C570.658,386.505,122.203,226.408,26.083,23.557"/>
	<path fill="none" stroke="#FFB902" stroke-width="0.1711" d="M773.509,290.386c-111.491,70.36-384.268,8.664-454.628-102.827"/>
	<path fill="none" stroke="#0504FF" stroke-width="0.9138" d="M773.509,290.386c-19.872,108.446-212.351,241.307-320.797,221.435"/>
	<path fill="none" stroke="#0603FE" stroke-width="0.912" d="M773.509,290.386c-7.163,103.211-172.724,247.286-275.937,240.124"/>
	<path fill="none" stroke="#FE000A" stroke-width="0.3906" d="M773.509,290.386c-81.952,91.085-341.507,104.787-432.592,22.835"/>
	<path fill="none" stroke="#FF2506" stroke-width="0.3438" d="M773.509,290.386c-101.575,109.245-417.803,120.75-527.048,19.176"/>
	<path fill="none" stroke="#FF02A5" stroke-width="0.5612" d="M773.509,290.386c-110.641,33.415-326.725-82.423-360.14-193.064"/>
	<path fill="none" stroke="#FF7504" stroke-width="0.2507" d="M773.509,290.386c-96.943,36.362-296.9-54.51-333.262-151.453"/>
	<path fill="none" stroke="#CB03EE" stroke-width="0.6941" d="M773.509,290.386c-84.787,10.806-228.177-100.166-238.983-184.953"/>
	<path fill="none" stroke="#FF0166" stroke-width="0.4911" d="M773.509,290.386c-65.749,137.369-370.426,244.799-507.795,179.05"/>
	<path fill="none" stroke="#FF5305" stroke-width="0.2899" d="M1007.64,256.39c-8.042,10.774-36.266,14.872-47.04,6.83"/>
	<path fill="none" stroke="#FFBF01" stroke-width="0.1637" d="M767.224,381.997c-53.827-31.798-86.872-160.238-55.073-214.066"/>
	<path fill="none" stroke="#FF9603" stroke-width="0.2118" d="M767.224,381.997c23.786,27.017,18.94,103.22-8.075,127.005"/>
	<path fill="none" stroke="#FF1007" stroke-width="0.3683" d="M767.224,381.997c-82.813,117.79-383.72,170.253-501.51,87.439"/>
	<path fill="none" stroke="#FF0036" stroke-width="0.439" d="M647.055,660.398C534.392,555.203,523.191,228.413,628.388,115.75"/>
	<path fill="none" stroke="#FF02B7" stroke-width="0.5811" d="M631.37,600.56c-95.188,34.228-289.312-57.212-323.541-152.399"/>
	<path fill="none" stroke="#FFBF01" stroke-width="0.1637" d="M631.37,600.56C561,497.878,609.469,238.301,712.15,167.931"/>
	<path fill="none" stroke="#FFA902" stroke-width="0.189" d="M631.37,600.56C499.453,560.466,361.719,302.45,401.812,170.534"/>
	<path fill="none" stroke="#FF02A7" stroke-width="0.5635" d="M631.37,600.56c64.262,37.569,104.3,190.316,66.729,254.579"/>
	<path fill="none" stroke="#FFA202" stroke-width="0.1973" d="M631.37,600.56c-184.683-8.941-448.294-299.377-439.353-484.06"/>
	<path fill="none" stroke="#FFEA00" stroke-width="0.114" d="M631.37,600.56C472.868,584.236,259.6,322,275.923,163.498"/>
	<path fill="none" stroke="#FFDC00" stroke-width="0.13" d="M631.37,600.56c-197.688-5.274-486.307-309.718-481.032-507.405"/>
	<path fill="none" stroke="#FFD800" stroke-width="0.134" d="M631.37,600.56c-118.394-79.656-176.501-376.732-96.845-495.126"/>
	<path fill="none" stroke="#FFED00" stroke-width="0.1105" d="M613.409,532.039c-77.892,44.34-261.24-5.988-305.58-83.879"/>
	<path fill="none" stroke="#9403F2" stroke-width="0.7545" d="M613.409,532.039c-39.819-91.117,37.128-287.521,128.245-327.341"/>
	<path fill="none" stroke="#FFE500" stroke-width="0.1194" d="M613.409,532.039c-80.263-86.254-71.274-336.027,14.979-416.289"/>
	<path fill="none" stroke="#FF018F" stroke-width="0.5369" d="M613.409,532.039c-114.62-29.981-241.578-246.885-211.597-361.505"/>
	<path fill="none" stroke="#FFC901" stroke-width="0.152" d="M613.409,532.039C629.084,408.837,837.398,247.546,960.6,263.22"/>
	<path fill="none" stroke="#A203F1" stroke-width="0.7391" d="M613.409,532.039c69.938,40.888,113.512,207.125,72.624,277.062"/>
	<path fill="none" stroke="#FF0177" stroke-width="0.5108" d="M613.409,532.039c81.558,47.682,132.372,241.541,84.69,323.1"/>
	<path fill="none" stroke="#FFF200" stroke-width="0.1047" d="M613.409,532.039c45.899,26.834,74.497,135.935,47.663,181.834"/>
	<path fill="none" stroke="#FFCA01" stroke-width="0.1514" d="M613.409,532.039c58.142,33.991,94.366,172.189,60.374,230.33"/>
	<path fill="none" stroke="#FFDB00" stroke-width="0.1305" d="M613.409,532.039C446.023,533.21,193.188,283.886,192.017,116.5"/>
	<path fill="none" stroke="#FF9503" stroke-width="0.2124" d="M613.409,532.039c-141.205-6.211-343.697-227.336-337.486-368.541"/>
	<path fill="none" stroke="#FFE200" stroke-width="0.1228" d="M613.409,532.039c-82.06,57.019-290.677,19.457-347.695-62.603"/>
	<path fill="none" stroke="#FFDA00" stroke-width="0.1324" d="M233.827,139.918C181.896,154.56,82.039,98.628,67.397,46.698"/>
	<path fill="none" stroke="#FF6504" stroke-width="0.2694" d="M192.017,116.5c-13.005,3.667-38.013-10.34-41.679-23.346"/>
	<path fill="none" stroke="#FFEA00" stroke-width="0.1137" d="M368.494,215.349c-8.992-49.521,51.804-137.292,101.326-146.283"/>
	<path fill="none" stroke="#FF8E03" stroke-width="0.2213" d="M368.494,215.349c118.262-33.95,346.58,92.517,380.531,210.778"/>
	<path fill="none" stroke="#5103F8" stroke-width="0.8287" d="M368.494,215.349c-81.026,22.846-236.833-64.426-259.679-145.452"/>
	<path fill="none" stroke="#FF3D06" stroke-width="0.3158" d="M368.494,215.349c-42.02,11.848-122.82-33.411-134.667-75.43"/>
	<path fill="none" stroke="#FF0907" stroke-width="0.3763" d="M368.494,215.349c-93.95,26.489-274.608-74.701-301.097-168.651"/>
	<path fill="none" stroke="#B303F0" stroke-width="0.7202" d="M368.494,215.349c-15.48,4.365-45.249-12.309-49.613-27.789"/>
	<path fill="none" stroke="#FF7904" stroke-width="0.2455" d="M368.494,215.349c30.261,71.374-31.407,223.826-102.78,254.088"/>
	<path fill="none" stroke="#FFDA00" stroke-width="0.1324" d="M275.923,163.498c-65.065,18.345-190.181-51.735-208.526-116.8"/>
	<path fill="none" stroke="#FF9C02" stroke-width="0.2044" d="M275.923,163.498c-77.956,21.979-227.86-61.985-249.84-139.941"/>
	<path fill="none" stroke="#FECD01" stroke-width="0.1473" d="M340.917,313.222c-19.623,18.159-76.296,15.964-94.456-3.659"/>
	<path fill="none" stroke="#FECA01" stroke-width="0.1511" d="M440.247,138.934c-13.698-2.947-29.824-27.914-26.877-41.611"/>
</g>
<g id="nodes">
	<circle fill="#FFDB00" cx="364.122" cy="419.72" r="13.184"/>
	<circle fill="#FFDB00" cx="307.829" cy="448.16" r="4.932"/>
	<circle fill="#FF6B04" cx="547.913" cy="538.901" r="6.983"/>
	<circle fill="#FFDB00" cx="469.82" cy="69.065" r="5.347"/>
	<circle fill="#FFF700" cx="486.379" cy="116.355" r="6.017"/>
	<circle fill="#FFDB00" cx="365.503" cy="519.703" r="6.328"/>
	<circle fill="#FF3306" cx="406.562" cy="477.515" r="9.601"/>
	<circle fill="#FFF700" cx="741.654" cy="204.698" r="4.942"/>
	<circle fill="#FFE900" cx="581.934" cy="105.427" r="4.989"/>
	<circle fill="#FFE900" cx="628.388" cy="115.75" r="5.113"/>
	<circle fill="#FFF700" cx="700.423" cy="93.854" r="5.659"/>
	<circle fill="#FFF700" cx="726.745" cy="51.678" r="5.503"/>
	<circle fill="#FFF700" cx="673.42" cy="137.122" r="6.173"/>
	<circle fill="#FFB102" cx="712.15" cy="167.931" r="4.927"/>
	<circle fill="#FFDB00" cx="401.812" cy="170.534" r="5.176"/>
	<circle fill="#FFE900" cx="749.025" cy="426.127" r="5.02"/>
	<circle fill="#FFE900" cx="913.324" cy="270.084" r="5.129"/>
	<circle fill="#FFDB00" cx="960.6" cy="263.22" r="5.02"/>
	<circle fill="#FFF700" cx="865.426" cy="277.04" r="5.347"/>
	<circle fill="#0504FF" cx="773.509" cy="290.386" r="28.296"/>
	<circle fill="#FFE900" cx="1007.64" cy="256.39" r="5.004"/>
	<circle fill="#FFCD01" cx="767.224" cy="381.997" r="5.16"/>
	<circle fill="#FFF700" cx="717.322" cy="469.992" r="8.51"/>
	<circle fill="#FFE900" cx="940.854" cy="678.474" r="4.931"/>
	<circle fill="#FFF700" cx="834.094" cy="578.902" r="5.643"/>
	<circle fill="#FFF700" cx="870.299" cy="612.669" r="5.409"/>
	<circle fill="#FFE900" cx="759.148" cy="509.002" r="6.546"/>
	<circle fill="#FFF700" cx="905.912" cy="645.885" r="5.223"/>
	<circle fill="#FFF700" cx="797.256" cy="544.544" r="5.861"/>
	<circle fill="#FFF700" cx="673.216" cy="506.287" r="6.593"/>
	<circle fill="#FFF700" cx="686.033" cy="809.101" r="5.067"/>
	<circle fill="#FFF700" cx="647.055" cy="660.399" r="8.042"/>
	<circle fill="#FFDB00" cx="698.1" cy="855.138" r="4.989"/>
	<circle fill="#FFF700" cx="661.072" cy="713.873" r="6.017"/>
	<circle fill="#FF9503" cx="631.37" cy="600.56" r="9.444"/>
	<circle fill="#FFF700" cx="673.783" cy="762.37" r="5.363"/>
	<circle fill="#FF5D04" cx="613.409" cy="532.039" r="12.717"/>
	<circle fill="#FFF700" cx="108.815" cy="69.897" r="5.02"/>
	<circle fill="#FFE900" cx="233.827" cy="139.918" r="5.113"/>
	<circle fill="#FFCD01" cx="192.017" cy="116.5" r="5.113"/>
	<circle fill="#FFDB00" cx="67.397" cy="46.698" r="4.973"/>
	<circle fill="#FFA302" cx="368.494" cy="215.349" r="9.258"/>
	<circle fill="#FFBF01" cx="275.923" cy="163.498" r="5.285"/>
	<circle fill="#FFDB00" cx="150.338" cy="93.155" r="5.035"/>
	<circle fill="#FFF700" cx="26.083" cy="23.557" r="4.958"/>
	<circle fill="#FFF700" cx="318.881" cy="187.56" r="5.627"/>
	<circle fill="#FFF700" cx="452.712" cy="511.821" r="5.706"/>
	<circle fill="#FFF700" cx="497.572" cy="530.509" r="4.927"/>
	<circle fill="#FFE900" cx="340.917" cy="313.222" r="29.465"/>
	<circle fill="#FFE900" cx="246.46" cy="309.563" r="5.035"/>
	<circle fill="#FFE900" cx="413.369" cy="97.323" r="5.004"/>
	<circle fill="#FFF700" cx="440.247" cy="138.934" r="6.064"/>
	<circle fill="#FFF700" cx="534.525" cy="105.433" r="5.02"/>
	<circle fill="#FFBF01" cx="265.714" cy="469.437" r="4.911"/>
</g>
<g id="node-labels">
	<text transform="matrix(1 0 0 1 337.3447 423.1035)" font-family="'HelveticaNeue'" font-size="18.6611">Arabic</text>
	<text transform="matrix(1 0 0 1 295.7334 449.4062)" font-family="'HelveticaNeue'" font-size="6.8751">Maltese</text>
	<text transform="matrix(1 0 0 1 526.7188 541.1387)" font-family="'HelveticaNeue'" font-size="9.8216">Japanese</text>
	<text transform="matrix(1 0 0 1 450.6216 70.8564)" font-family="'HelveticaNeue'" font-size="7.8573">Azerbaijani</text>
	<text transform="matrix(1 0 0 1 472.3774 117.958)" font-family="'HelveticaNeue'" font-size="8.8394">Turkish</text>
	<text transform="matrix(1 0 0 1 351.4272 521.7178)" font-family="'HelveticaNeue'" font-size="8.8394">Filipino</text>
	<text transform="matrix(1 0 0 1 388.2266 480.6777)" font-family="'HelveticaNeue'" font-size="13.7502">Malay</text>
	<text transform="matrix(1 0 0 1 729.9395 206.2656)" font-family="'HelveticaNeue'" font-size="6.8751">Basque</text>
	<text transform="matrix(1 0 0 1 567.9639 107.0439)" font-family="'HelveticaNeue'" font-size="6.8751">Georgian</text>
	<text transform="matrix(1 0 0 1 617.6943 116.9971)" font-family="'HelveticaNeue'" font-size="6.8751">Haitian</text>
	<text transform="matrix(1 0 0 1 684.7754 95.2793)" font-family="'HelveticaNeue'" font-size="7.8573">Kannada</text>
	<text transform="matrix(1 0 0 1 707.8262 53.4863)" font-family="'HelveticaNeue'" font-size="7.8573">Malayalam</text>
	<text transform="matrix(1 0 0 1 660.5674 139.1621)" font-family="'HelveticaNeue'" font-size="8.8394">Telugu</text>
	<text transform="matrix(1 0 0 1 699.7305 169.1777)" font-family="'HelveticaNeue'" font-size="6.8751">Inuktitut</text>
	<text transform="matrix(1 0 0 1 388.5063 171.7812)" font-family="'HelveticaNeue'" font-size="6.8751">Albanian</text>
	<text transform="matrix(1 0 0 1 734.4434 427.375)" font-family="'HelveticaNeue'" font-size="6.8751">Armenian</text>
	<text transform="matrix(1 0 0 1 899.0654 271.3457)" font-family="'HelveticaNeue'" font-size="6.8751">Afrikaans</text>
	<text transform="matrix(1 0 0 1 950.0303 264.4668)" font-family="'HelveticaNeue'" font-size="6.8751">Danish</text>
	<text transform="matrix(1 0 0 1 854.9453 278.4648)" font-family="'HelveticaNeue'" font-size="7.8573">Dutch</text>
	<text transform="matrix(1 0 0 1 709.8457 299.4521)" font-family="'HelveticaNeue'" font-size="39.2864">English</text>
	<text transform="matrix(1 0 0 1 991.0957 257.9775)" font-family="'HelveticaNeue'" font-size="6.8751">Norwegian</text>
	<text transform="matrix(1 0 0 1 743.3506 383.5928)" font-family="'HelveticaNeue'" font-size="6.8751">Greek (Modern)</text>
	<text transform="matrix(1 0 0 1 697.6816 472.7129)" font-family="'HelveticaNeue'" font-size="11.7859">Bengali</text>
	<text transform="matrix(1 0 0 1 929.5215 679.7207)" font-family="'HelveticaNeue'" font-size="6.8751">Dhivehi</text>
	<text transform="matrix(1 0 0 1 820.4199 580.7256)" font-family="'HelveticaNeue'" font-size="7.8573">Gujarati</text>
	<text transform="matrix(1 0 0 1 861.0586 614.5107)" font-family="'HelveticaNeue'" font-size="7.8573">Oriya</text>
	<text transform="matrix(1 0 0 1 744.498 511.0166)" font-family="'HelveticaNeue'" font-size="8.8394">Panjabi</text>
	<text transform="matrix(1 0 0 1 894.6445 647.1689)" font-family="'HelveticaNeue'" font-size="6.8751">Sinhala</text>
	<text transform="matrix(1 0 0 1 788.668 545.9795)" font-family="'HelveticaNeue'" font-size="7.8573">Urdu</text>
	<text transform="matrix(1 0 0 1 658.4863 507.8896)" font-family="'HelveticaNeue'" font-size="8.8394">Persian</text>
	<text transform="matrix(1 0 0 1 674.2568 810.3857)" font-family="'HelveticaNeue'" font-size="6.8751">Catalan</text>
	<text transform="matrix(1 0 0 1 630.4453 662.3584)" font-family="'HelveticaNeue'" font-size="10.8038">French</text>
	<text transform="matrix(1 0 0 1 685.7529 856.4229)" font-family="'HelveticaNeue'" font-size="6.8751">Galician</text>
	<text transform="matrix(1 0 0 1 649.3691 715.4756)" font-family="'HelveticaNeue'" font-size="8.8394">Italian</text>
	<text transform="matrix(1 0 0 1 598.6211 603.5068)" font-family="'HelveticaNeue'" font-size="12.7681">Portuguese</text>
	<text transform="matrix(1 0 0 1 656.0273 763.7949)" font-family="'HelveticaNeue'" font-size="7.8573">Romanian</text>
	<text transform="matrix(1 0 0 1 581.4824 536.1416)" font-family="'HelveticaNeue'" font-size="17.6789">Spanish</text>
	<text transform="matrix(1 0 0 1 92.7109 71.1436)" font-family="'HelveticaNeue'" font-size="6.8751">Belarusian</text>
	<text transform="matrix(1 0 0 1 219.314 141.5059)" font-family="'HelveticaNeue'" font-size="6.8751">Bulgarian</text>
	<text transform="matrix(1 0 0 1 182.2822 117.7852)" font-family="'HelveticaNeue'" font-size="6.8751">Czech</text>
	<text transform="matrix(1 0 0 1 48.4229 47.9443)" font-family="'HelveticaNeue'" font-size="6.8751">Macedonian</text>
	<text transform="matrix(1 0 0 1 345.793 217.6641)" font-family="'HelveticaNeue'" font-size="12.7681">Russian</text>
	<text transform="matrix(1 0 0 1 249.0049 164.9658)" font-family="'HelveticaNeue'" font-size="7.8573">Serbo-Croatian</text>
	<text transform="matrix(1 0 0 1 140.0259 94.4395)" font-family="'HelveticaNeue'" font-size="6.8751">Slovak</text>
	<text transform="matrix(1 0 0 1 11.124 24.8418)" font-family="'HelveticaNeue'" font-size="6.8751">Slovenian</text>
	<text transform="matrix(1 0 0 1 302.3657 188.9941)" font-family="'HelveticaNeue'" font-size="7.8573">Ukrainian</text>
	<text transform="matrix(1 0 0 1 440.2783 513.2891)" font-family="'HelveticaNeue'" font-size="7.8573">Swahili</text>
	<text transform="matrix(1 0 0 1 482.8022 531.7939)" font-family="'HelveticaNeue'" font-size="6.8751">Cherokee</text>
	<text transform="matrix(1 0 0 1 266.0479 320.9258)" font-family="'HelveticaNeue'" font-size="41.2507">Chinese</text>
	<text transform="matrix(1 0 0 1 235.0005 310.8096)" font-family="'HelveticaNeue'" font-size="6.8751">Tibetan</text>
	<text transform="matrix(1 0 0 1 407.6392 98.5693)" font-family="'HelveticaNeue'" font-size="6.8751">Lao</text>
	<text transform="matrix(1 0 0 1 431.8984 140.5371)" font-family="'HelveticaNeue'" font-size="8.8394">Thai</text>
	<text transform="matrix(1 0 0 1 523.5742 106.6807)" font-family="'HelveticaNeue'" font-size="6.8751">Finnish</text>
	<text transform="matrix(1 0 0 1 256.1685 471.0479)" font-family="'HelveticaNeue'" font-size="6.8751">Syriac</text>
</g>
</svg>
